<svg width="160" height="46" viewBox="0 0 160 46" fill="none" xmlns="http://www.w3.org/2000/svg">
<path d="M46.0747 20.176C44.8587 20.176 43.8187 19.936 42.9547 19.456C42.0907 18.976 41.424 18.304 40.9547 17.44C40.496 16.5653 40.2667 15.536 40.2667 14.352C40.2667 13.1787 40.496 12.16 40.9547 11.296C41.424 10.4213 42.0907 9.744 42.9547 9.264C43.8187 8.784 44.8587 8.544 46.0747 8.544C46.608 8.544 47.1467 8.61333 47.6907 8.752C48.2453 8.89067 48.7253 9.07733 49.1307 9.312C49.4613 9.504 49.664 9.744 49.7387 10.032C49.8133 10.32 49.7867 10.592 49.6587 10.848C49.5413 11.104 49.3547 11.2853 49.0987 11.392C48.8427 11.4987 48.5547 11.4613 48.2347 11.28C47.9147 11.088 47.5787 10.9493 47.2267 10.864C46.8747 10.7787 46.5173 10.736 46.1547 10.736C45.0773 10.736 44.2613 11.0507 43.7067 11.68C43.1627 12.2987 42.8907 13.1893 42.8907 14.352C42.8907 15.5147 43.1627 16.4107 43.7067 17.04C44.2613 17.6693 45.0773 17.984 46.1547 17.984C46.496 17.984 46.8427 17.9413 47.1947 17.856C47.5573 17.7707 47.904 17.6373 48.2347 17.456C48.576 17.2747 48.8747 17.2373 49.1307 17.344C49.3867 17.44 49.5733 17.6107 49.6907 17.856C49.8187 18.0907 49.8507 18.352 49.7867 18.64C49.7227 18.9173 49.5413 19.1467 49.2427 19.328C48.8373 19.5947 48.3467 19.8027 47.7707 19.952C47.2053 20.1013 46.64 20.176 46.0747 20.176ZM51.8442 22.224C51.5242 22.224 51.2735 22.128 51.0922 21.936C50.9108 21.7547 50.8202 21.4933 50.8202 21.152V19.248C50.8202 18.5653 51.1402 18.2027 51.7802 18.16C52.0468 17.6907 52.2335 17.168 52.3402 16.592C52.4575 16.0053 52.5162 15.2533 52.5162 14.336V13.504C52.5162 13.0667 52.6282 12.7307 52.8522 12.496C53.0868 12.2613 53.4228 12.144 53.8602 12.144H57.6042C58.0415 12.144 58.3775 12.2613 58.6122 12.496C58.8468 12.7307 58.9642 13.0667 58.9642 13.504V18.144H59.1722C59.8975 18.144 60.2602 18.512 60.2602 19.248V21.152C60.2602 21.8667 59.9188 22.224 59.2362 22.224C58.5535 22.224 58.2122 21.8667 58.2122 21.152V20H52.8522V21.152C52.8522 21.8667 52.5162 22.224 51.8442 22.224ZM53.8922 18.16H56.7082V13.984H54.5642V14.944C54.5642 15.5307 54.5055 16.112 54.3882 16.688C54.2708 17.264 54.1055 17.7547 53.8922 18.16ZM65.6652 20.176C64.7372 20.176 63.9372 20.0107 63.2652 19.68C62.6038 19.3387 62.0918 18.864 61.7292 18.256C61.3772 17.6373 61.2012 16.912 61.2012 16.08C61.2012 15.2693 61.3718 14.56 61.7132 13.952C62.0652 13.3333 62.5398 12.8533 63.1372 12.512C63.7452 12.16 64.4438 11.984 65.2332 11.984C66.3745 11.984 67.2812 12.3467 67.9532 13.072C68.6252 13.7867 68.9612 14.7573 68.9612 15.984C68.9612 16.3893 68.7105 16.592 68.2092 16.592H63.5052C63.5905 17.2107 63.8145 17.664 64.1772 17.952C64.5505 18.2293 65.0625 18.368 65.7132 18.368C65.9692 18.368 66.2572 18.3413 66.5772 18.288C66.9078 18.224 67.2225 18.1173 67.5212 17.968C67.8305 17.8187 68.0918 17.792 68.3052 17.888C68.5185 17.9733 68.6625 18.1227 68.7372 18.336C68.8225 18.5493 68.8225 18.7733 68.7372 19.008C68.6625 19.232 68.4865 19.4187 68.2092 19.568C67.8358 19.7707 67.4198 19.92 66.9612 20.016C66.5132 20.1227 66.0812 20.176 65.6652 20.176ZM65.3292 13.584C64.8172 13.584 64.4012 13.7387 64.0812 14.048C63.7718 14.3573 63.5798 14.7893 63.5052 15.344H66.9612C66.8972 14.1707 66.3532 13.584 65.3292 13.584ZM77.0644 20.144C76.2538 20.144 75.8484 19.7333 75.8484 18.912V14.016H73.8004V14.896C73.8004 16.272 73.6084 17.3813 73.2244 18.224C72.8511 19.0667 72.2484 19.6587 71.4164 20C71.0751 20.1387 70.7711 20.1547 70.5044 20.048C70.2484 19.952 70.0564 19.7867 69.9284 19.552C69.8111 19.3067 69.7844 19.0507 69.8484 18.784C69.9231 18.5173 70.1151 18.288 70.4244 18.096C70.8938 17.8293 71.2031 17.4293 71.3524 16.896C71.5124 16.352 71.5924 15.6587 71.5924 14.816V13.504C71.5924 13.0667 71.7044 12.7307 71.9284 12.496C72.1631 12.2613 72.4991 12.144 72.9364 12.144H76.9204C77.3578 12.144 77.6884 12.2613 77.9124 12.496C78.1471 12.7307 78.2644 13.0667 78.2644 13.504V18.912C78.2644 19.3067 78.1578 19.6107 77.9444 19.824C77.7418 20.0373 77.4484 20.144 77.0644 20.144ZM83.038 20.176C82.4514 20.176 81.934 20.064 81.486 19.84C81.038 19.616 80.6807 19.312 80.414 18.928C80.158 18.544 80.03 18.112 80.03 17.632C80.03 17.0667 80.1794 16.6133 80.478 16.272C80.7767 15.9307 81.262 15.6907 81.934 15.552C82.606 15.4027 83.4967 15.328 84.6061 15.328H85.1821V15.056C85.1821 14.5867 85.0754 14.256 84.8621 14.064C84.6487 13.8613 84.2861 13.76 83.7741 13.76C83.4861 13.76 83.1714 13.7973 82.83 13.872C82.4887 13.936 82.1207 14.048 81.726 14.208C81.4274 14.336 81.1767 14.3467 80.974 14.24C80.7714 14.1227 80.638 13.952 80.574 13.728C80.51 13.4933 80.526 13.2587 80.622 13.024C80.7287 12.7893 80.9314 12.6187 81.23 12.512C81.7314 12.32 82.2007 12.1867 82.6381 12.112C83.0861 12.0267 83.4967 11.984 83.87 11.984C85.0861 11.984 85.9927 12.2613 86.5901 12.816C87.1874 13.36 87.4861 14.208 87.4861 15.36V18.912C87.4861 19.7333 87.1127 20.144 86.3661 20.144C85.6087 20.144 85.2301 19.7333 85.2301 18.912V18.816C85.07 19.232 84.798 19.5627 84.4141 19.808C84.0407 20.0533 83.5821 20.176 83.038 20.176ZM83.582 18.56C84.0301 18.56 84.4087 18.4053 84.7181 18.096C85.0274 17.7867 85.1821 17.3867 85.1821 16.896V16.576H84.6221C83.8007 16.576 83.2194 16.6507 82.8781 16.8C82.5367 16.9387 82.3661 17.184 82.3661 17.536C82.3661 17.8347 82.4674 18.08 82.67 18.272C82.8834 18.464 83.1874 18.56 83.582 18.56ZM93.6339 20.176C92.7059 20.176 91.9059 20.0107 91.2339 19.68C90.5726 19.3387 90.0606 18.864 89.6979 18.256C89.3459 17.6373 89.1699 16.912 89.1699 16.08C89.1699 15.2693 89.3406 14.56 89.6819 13.952C90.0339 13.3333 90.5086 12.8533 91.1059 12.512C91.7139 12.16 92.4126 11.984 93.2019 11.984C94.3433 11.984 95.2499 12.3467 95.9219 13.072C96.5939 13.7867 96.9299 14.7573 96.9299 15.984C96.9299 16.3893 96.6793 16.592 96.1779 16.592H91.4739C91.5593 17.2107 91.7833 17.664 92.1459 17.952C92.5193 18.2293 93.0313 18.368 93.6819 18.368C93.9379 18.368 94.2259 18.3413 94.5459 18.288C94.8766 18.224 95.1913 18.1173 95.4899 17.968C95.7993 17.8187 96.0606 17.792 96.2739 17.888C96.4873 17.9733 96.6313 18.1227 96.7059 18.336C96.7913 18.5493 96.7913 18.7733 96.7059 19.008C96.6313 19.232 96.4553 19.4187 96.1779 19.568C95.8046 19.7707 95.3886 19.92 94.9299 20.016C94.4819 20.1227 94.0499 20.176 93.6339 20.176ZM93.2979 13.584C92.7859 13.584 92.3699 13.7387 92.0499 14.048C91.7406 14.3573 91.5486 14.7893 91.4739 15.344H94.9299C94.8659 14.1707 94.3219 13.584 93.2979 13.584ZM99.6412 20.144C98.9372 20.144 98.5852 19.7653 98.5852 19.008V13.344C98.5852 12.4587 98.9532 12.016 99.6892 12.016C100.031 12.016 100.297 12.1013 100.489 12.272C100.692 12.432 100.868 12.6347 101.017 12.88L103.145 16.432L105.257 12.896C105.385 12.672 105.545 12.4693 105.737 12.288C105.929 12.1067 106.207 12.016 106.569 12.016C107.316 12.016 107.689 12.4587 107.689 13.344V19.008C107.689 19.7653 107.332 20.144 106.617 20.144C105.913 20.144 105.561 19.7653 105.561 19.008V15.6L103.945 18.304C103.871 18.4213 103.775 18.5333 103.657 18.64C103.54 18.7467 103.369 18.8 103.145 18.8C102.921 18.8 102.751 18.752 102.633 18.656C102.516 18.5493 102.415 18.432 102.329 18.304L100.697 15.6V19.008C100.697 19.7653 100.345 20.144 99.6412 20.144ZM46.9707 36.144C46.16 36.144 45.7547 35.7333 45.7547 34.912V30.016H43.7067V30.896C43.7067 32.272 43.5147 33.3813 43.1307 34.224C42.7573 35.0667 42.1547 35.6587 41.3227 36C40.9813 36.1387 40.6773 36.1547 40.4107 36.048C40.1547 35.952 39.9627 35.7867 39.8347 35.552C39.7173 35.3067 39.6907 35.0507 39.7547 34.784C39.8293 34.5173 40.0213 34.288 40.3307 34.096C40.8 33.8293 41.1093 33.4293 41.2587 32.896C41.4187 32.352 41.4987 31.6587 41.4987 30.816V29.504C41.4987 29.0667 41.6107 28.7307 41.8347 28.496C42.0693 28.2613 42.4053 28.144 42.8427 28.144H46.8267C47.264 28.144 47.5947 28.2613 47.8187 28.496C48.0533 28.7307 48.1707 29.0667 48.1707 29.504V34.912C48.1707 35.3067 48.064 35.6107 47.8507 35.824C47.648 36.0373 47.3547 36.144 46.9707 36.144ZM52.4323 39.024C52.0056 39.024 51.7016 38.864 51.5203 38.544C51.3496 38.2347 51.3603 37.872 51.5523 37.456L52.4003 35.568L49.7923 29.584C49.6216 29.168 49.6216 28.8053 49.7923 28.496C49.9736 28.176 50.331 28.016 50.8643 28.016C51.1523 28.016 51.3816 28.0853 51.5523 28.224C51.7336 28.352 51.899 28.6027 52.0483 28.976L53.6803 33.136L55.3763 28.96C55.5256 28.5973 55.691 28.352 55.8723 28.224C56.0643 28.0853 56.3203 28.016 56.6403 28.016C57.0456 28.016 57.3283 28.176 57.4883 28.496C57.659 28.8053 57.6536 29.1627 57.4723 29.568L53.7123 38.096C53.5523 38.4587 53.371 38.704 53.1683 38.832C52.9763 38.96 52.731 39.024 52.4323 39.024ZM65.1656 36.144C64.3762 36.144 63.9816 35.712 63.9816 34.848V33.36C63.7042 33.4773 63.4215 33.5627 63.1336 33.616C62.8562 33.6693 62.5789 33.696 62.3015 33.696C59.9335 33.696 58.7495 32.5387 58.7495 30.224V29.232C58.7495 28.4213 59.1495 28.016 59.9495 28.016C60.7602 28.016 61.1655 28.4213 61.1655 29.232V30C61.1655 30.6187 61.2829 31.0667 61.5175 31.344C61.7629 31.6213 62.1789 31.76 62.7656 31.76C63.2349 31.76 63.6242 31.6587 63.9335 31.456V29.296C63.9335 28.4427 64.3389 28.016 65.1495 28.016C65.9496 28.016 66.3496 28.4427 66.3496 29.296V34.848C66.3496 35.712 65.9549 36.144 65.1656 36.144ZM69.6282 36C68.8495 36 68.4602 35.6053 68.4602 34.816V29.232C68.4602 28.8373 68.5562 28.5387 68.7482 28.336C68.9508 28.1227 69.2335 28.016 69.5962 28.016C70.3428 28.016 70.7162 28.4213 70.7162 29.232V34.128H73.0842V29.232C73.0842 28.8373 73.1802 28.5387 73.3722 28.336C73.5748 28.1227 73.8575 28.016 74.2202 28.016C74.9668 28.016 75.3402 28.4213 75.3402 29.232V34.128H77.7082V29.232C77.7082 28.8373 77.8042 28.5387 77.9962 28.336C78.1988 28.1227 78.4815 28.016 78.8442 28.016C79.5908 28.016 79.9642 28.4213 79.9642 29.232V34.816C79.9642 35.6053 79.5748 36 78.7962 36H69.6282ZM86.1495 36.176C85.2215 36.176 84.4215 36.0107 83.7495 35.68C83.0882 35.3387 82.5762 34.864 82.2135 34.256C81.8615 33.6373 81.6855 32.912 81.6855 32.08C81.6855 31.2693 81.8562 30.56 82.1975 29.952C82.5495 29.3333 83.0242 28.8533 83.6215 28.512C84.2295 28.16 84.9282 27.984 85.7175 27.984C86.8589 27.984 87.7656 28.3467 88.4376 29.072C89.1095 29.7867 89.4455 30.7573 89.4455 31.984C89.4455 32.3893 89.1949 32.592 88.6936 32.592H83.9895C84.0749 33.2107 84.2989 33.664 84.6616 33.952C85.0349 34.2293 85.5469 34.368 86.1975 34.368C86.4536 34.368 86.7416 34.3413 87.0616 34.288C87.3922 34.224 87.7069 34.1173 88.0055 33.968C88.3149 33.8187 88.5762 33.792 88.7896 33.888C89.0029 33.9733 89.1469 34.1227 89.2215 34.336C89.3069 34.5493 89.3069 34.7733 89.2215 35.008C89.1469 35.232 88.9709 35.4187 88.6936 35.568C88.3202 35.7707 87.9042 35.92 87.4455 36.016C86.9976 36.1227 86.5656 36.176 86.1495 36.176ZM85.8135 29.584C85.3015 29.584 84.8855 29.7387 84.5656 30.048C84.2562 30.3573 84.0642 30.7893 83.9895 31.344H87.4455C87.3816 30.1707 86.8376 29.584 85.8135 29.584ZM96.7376 36C95.9589 36 95.5695 35.6053 95.5695 34.816V29.328C95.5695 28.5387 95.9589 28.144 96.7376 28.144H100.034C101.1 28.144 101.858 28.3307 102.306 28.704C102.754 29.0667 102.978 29.568 102.978 30.208C102.978 30.6027 102.866 30.9493 102.642 31.248C102.428 31.5467 102.13 31.7653 101.746 31.904C102.268 32.032 102.652 32.2613 102.898 32.592C103.143 32.9227 103.266 33.3227 103.266 33.792C103.266 34.464 102.999 35.0027 102.466 35.408C101.943 35.8027 101.175 36 100.162 36H96.7376ZM97.7936 31.28H99.7776C100.098 31.28 100.348 31.2053 100.53 31.056C100.711 30.9067 100.802 30.6933 100.802 30.416C100.802 30.1387 100.711 29.9307 100.53 29.792C100.348 29.6533 100.098 29.584 99.7776 29.584H97.7936V31.28ZM97.7936 34.56H99.9216C100.7 34.56 101.09 34.2507 101.09 33.632C101.09 33.0133 100.7 32.704 99.9216 32.704H97.7936V34.56ZM105.922 36.144C105.218 36.144 104.866 35.7653 104.866 35.008V29.344C104.866 28.4587 105.234 28.016 105.97 28.016C106.312 28.016 106.578 28.1013 106.77 28.272C106.973 28.432 107.149 28.6347 107.298 28.88L109.426 32.432L111.538 28.896C111.666 28.672 111.826 28.4693 112.018 28.288C112.21 28.1067 112.488 28.016 112.85 28.016C113.597 28.016 113.97 28.4587 113.97 29.344V35.008C113.97 35.7653 113.613 36.144 112.898 36.144C112.194 36.144 111.842 35.7653 111.842 35.008V31.6L110.226 34.304C110.152 34.4213 110.056 34.5333 109.938 34.64C109.821 34.7467 109.65 34.8 109.426 34.8C109.202 34.8 109.032 34.752 108.914 34.656C108.797 34.5493 108.696 34.432 108.61 34.304L106.978 31.6V35.008C106.978 35.7653 106.626 36.144 105.922 36.144ZM120.15 36.176C119.222 36.176 118.422 36.0107 117.75 35.68C117.088 35.3387 116.576 34.864 116.214 34.256C115.862 33.6373 115.686 32.912 115.686 32.08C115.686 31.2693 115.856 30.56 116.198 29.952C116.55 29.3333 117.024 28.8533 117.622 28.512C118.23 28.16 118.928 27.984 119.718 27.984C120.859 27.984 121.766 28.3467 122.438 29.072C123.11 29.7867 123.446 30.7573 123.446 31.984C123.446 32.3893 123.195 32.592 122.694 32.592H117.99C118.075 33.2107 118.299 33.664 118.662 33.952C119.035 34.2293 119.547 34.368 120.198 34.368C120.454 34.368 120.742 34.3413 121.062 34.288C121.392 34.224 121.707 34.1173 122.006 33.968C122.315 33.8187 122.576 33.792 122.79 33.888C123.003 33.9733 123.147 34.1227 123.222 34.336C123.307 34.5493 123.307 34.7733 123.222 35.008C123.147 35.232 122.971 35.4187 122.694 35.568C122.32 35.7707 121.904 35.92 121.446 36.016C120.998 36.1227 120.566 36.176 120.15 36.176ZM119.814 29.584C119.302 29.584 118.886 29.7387 118.566 30.048C118.256 30.3573 118.064 30.7893 117.99 31.344H121.446C121.382 30.1707 120.838 29.584 119.814 29.584ZM128.925 36.176C128.071 36.176 127.325 36.0107 126.685 35.68C126.055 35.3387 125.57 34.8587 125.229 34.24C124.887 33.6213 124.717 32.8907 124.717 32.048C124.717 31.2053 124.887 30.48 125.229 29.872C125.57 29.264 126.055 28.8 126.685 28.48C127.325 28.1493 128.071 27.984 128.925 27.984C129.255 27.984 129.607 28.0267 129.981 28.112C130.365 28.1867 130.733 28.32 131.085 28.512C131.351 28.64 131.517 28.8213 131.581 29.056C131.645 29.28 131.629 29.504 131.533 29.728C131.447 29.952 131.303 30.1173 131.101 30.224C130.909 30.32 130.679 30.2987 130.413 30.16C129.986 29.936 129.57 29.824 129.165 29.824C128.535 29.824 128.045 30.0213 127.693 30.416C127.351 30.8 127.181 31.3493 127.181 32.064C127.181 32.768 127.351 33.3227 127.693 33.728C128.045 34.1227 128.535 34.32 129.165 34.32C129.357 34.32 129.559 34.2987 129.773 34.256C129.986 34.2027 130.199 34.1173 130.413 34C130.679 33.8613 130.909 33.8453 131.101 33.952C131.303 34.0587 131.442 34.224 131.517 34.448C131.591 34.6613 131.597 34.8853 131.533 35.12C131.469 35.3547 131.309 35.536 131.053 35.664C130.69 35.8453 130.327 35.9733 129.965 36.048C129.602 36.1333 129.255 36.176 128.925 36.176ZM135.871 36.144C135.487 36.144 135.188 36.0373 134.975 35.824C134.772 35.6107 134.671 35.3067 134.671 34.912V30.032H132.943C132.271 30.032 131.935 29.7173 131.935 29.088C131.935 28.4587 132.271 28.144 132.943 28.144H138.799C139.482 28.144 139.823 28.4587 139.823 29.088C139.823 29.7173 139.482 30.032 138.799 30.032H137.087V34.912C137.087 35.7333 136.682 36.144 135.871 36.144ZM144.821 36.176C143.893 36.176 143.093 36.0107 142.421 35.68C141.76 35.3387 141.248 34.864 140.885 34.256C140.533 33.6373 140.357 32.912 140.357 32.08C140.357 31.2693 140.528 30.56 140.869 29.952C141.221 29.3333 141.696 28.8533 142.293 28.512C142.901 28.16 143.6 27.984 144.389 27.984C145.531 27.984 146.437 28.3467 147.109 29.072C147.781 29.7867 148.117 30.7573 148.117 31.984C148.117 32.3893 147.867 32.592 147.365 32.592H142.661C142.747 33.2107 142.971 33.664 143.333 33.952C143.707 34.2293 144.219 34.368 144.869 34.368C145.125 34.368 145.413 34.3413 145.733 34.288C146.064 34.224 146.379 34.1173 146.677 33.968C146.987 33.8187 147.248 33.792 147.461 33.888C147.675 33.9733 147.819 34.1227 147.893 34.336C147.979 34.5493 147.979 34.7733 147.893 35.008C147.819 35.232 147.643 35.4187 147.365 35.568C146.992 35.7707 146.576 35.92 146.117 36.016C145.669 36.1227 145.237 36.176 144.821 36.176ZM144.485 29.584C143.973 29.584 143.557 29.7387 143.237 30.048C142.928 30.3573 142.736 30.7893 142.661 31.344H146.117C146.053 30.1707 145.509 29.584 144.485 29.584ZM150.813 32.528C150.311 32.528 150.034 32.2347 149.981 31.648L149.469 26.176C149.415 25.7067 149.506 25.3227 149.741 25.024C149.986 24.7253 150.343 24.576 150.813 24.576C151.271 24.576 151.618 24.7253 151.853 25.024C152.087 25.3227 152.178 25.7067 152.125 26.176L151.613 31.648C151.549 32.2347 151.282 32.528 150.813 32.528ZM150.813 36.08C150.386 36.08 150.045 35.952 149.789 35.696C149.543 35.44 149.421 35.1093 149.421 34.704C149.421 34.3093 149.543 33.9893 149.789 33.744C150.045 33.488 150.386 33.36 150.813 33.36C151.239 33.36 151.57 33.488 151.805 33.744C152.05 33.9893 152.173 34.3093 152.173 34.704C152.173 35.1093 152.05 35.44 151.805 35.696C151.57 35.952 151.239 36.08 150.813 36.08Z" fill="white" fill-opacity="0.9903"/>
<path d="M32.8971 19.9293H19.2498L28.1898 0.158768L0.0677942 26.071H13.715L4.77513 45.8415L32.8971 19.9293Z" fill="url(#paint0_radial_56_53)"/>
<path d="M30.6452 20.7922L7.44763 42.1742L15.1259 25.2082H2.33332L25.5309 3.82611L17.8526 20.7922H30.6452Z" fill="url(#paint1_radial_56_53)"/>
<path d="M0.0677942 26.071L28.1898 0.158768L19.2363 19.9293H32.8971L4.77513 45.8415L13.7286 26.071H0.0677942ZM7.43403 42.1742L30.6316 20.7921H17.839L25.5309 3.82607L2.33328 25.2081H15.1258L7.43403 42.1742Z" fill="url(#paint2_radial_56_53)"/>
<path opacity="0.24" d="M32.8971 19.9293H19.2498L28.1898 0.158768L0.0677942 26.071H13.715L4.77513 45.8415L32.8971 19.9293Z" fill="url(#paint3_radial_56_53)"/>
<path d="M32.8971 19.9293H19.2498L28.1898 0.158768L0.0677942 26.071H13.715L4.77513 45.8415L32.8971 19.9293Z" fill="url(#paint4_radial_56_53)"/>
<path d="M32.8971 19.9293H19.2498L28.1898 0.158768L0.0677942 26.071H13.715L4.77513 45.8415L32.8971 19.9293Z" fill="url(#paint5_radial_56_53)"/>
<path opacity="0.24" d="M32.8971 19.9293H19.2498L28.1898 0.158768L0.0677942 26.071H13.715L4.77513 45.8415L32.8971 19.9293Z" fill="url(#paint6_radial_56_53)"/>
<defs>
<radialGradient id="paint0_radial_56_53" cx="0" cy="0" r="1" gradientUnits="userSpaceOnUse" gradientTransform="translate(26.8331 8.81391) rotate(180) scale(30.6502 28.6878)">
<stop stop-color="#FFE343"/>
<stop offset="0.5492" stop-color="#FFE241"/>
<stop offset="0.7469" stop-color="#FFDF3A"/>
<stop offset="0.8874" stop-color="#FEDA2F"/>
<stop offset="1" stop-color="#FED31E"/>
</radialGradient>
<radialGradient id="paint1_radial_56_53" cx="0" cy="0" r="1" gradientUnits="userSpaceOnUse" gradientTransform="translate(21.0058 8.90037) rotate(180) scale(35.8858 33.5883)">
<stop stop-color="#FFEC5F"/>
<stop offset="1" stop-color="#FFEC5F" stop-opacity="0"/>
</radialGradient>
<radialGradient id="paint2_radial_56_53" cx="0" cy="0" r="1" gradientUnits="userSpaceOnUse" gradientTransform="translate(-22.9182 40.3161) rotate(180) scale(83.2609 77.9302)">
<stop stop-color="#D86D00"/>
<stop offset="0.3292" stop-color="#DC6C0A" stop-opacity="0.6708"/>
<stop offset="0.8792" stop-color="#E86823" stop-opacity="0.1208"/>
<stop offset="1" stop-color="#EB672A" stop-opacity="0"/>
</radialGradient>
<radialGradient id="paint3_radial_56_53" cx="0" cy="0" r="1" gradientUnits="userSpaceOnUse" gradientTransform="translate(17.8456 -0.377098) rotate(109.436) scale(60.5931 26.6055)">
<stop stop-color="white"/>
<stop offset="1" stop-color="white" stop-opacity="0"/>
</radialGradient>
<radialGradient id="paint4_radial_56_53" cx="0" cy="0" r="1" gradientUnits="userSpaceOnUse" gradientTransform="translate(0.932361 1.19484) rotate(180) scale(45.936 42.995)">
<stop stop-color="#FF8000" stop-opacity="0"/>
<stop offset="0.5434" stop-color="#FD7F00" stop-opacity="0.5434"/>
<stop offset="0.7391" stop-color="#F67C00" stop-opacity="0.7391"/>
<stop offset="0.8781" stop-color="#EB7600" stop-opacity="0.8781"/>
<stop offset="0.9903" stop-color="#DA6E00" stop-opacity="0.9903"/>
<stop offset="1" stop-color="#D86D00"/>
</radialGradient>
<radialGradient id="paint5_radial_56_53" cx="0" cy="0" r="1" gradientUnits="userSpaceOnUse" gradientTransform="translate(16.0411 27.4559) rotate(123.396) scale(15.6837 7.68511)">
<stop stop-color="#FFEC5F"/>
<stop offset="1" stop-color="#FFEC5F" stop-opacity="0"/>
</radialGradient>
<radialGradient id="paint6_radial_56_53" cx="0" cy="0" r="1" gradientUnits="userSpaceOnUse" gradientTransform="translate(20.0802 11.9013) rotate(123.396) scale(15.6837 7.68511)">
<stop stop-color="white"/>
<stop offset="1" stop-color="white" stop-opacity="0"/>
</radialGradient>
</defs>
</svg>
