<svg width="150" height="46" viewBox="0 0 150 46" fill="none" xmlns="http://www.w3.org/2000/svg">
<path d="M43.304 20.144C42.1947 20.144 41.224 19.9093 40.392 19.44C39.56 18.9707 38.92 18.2987 38.472 17.424C38.024 16.5493 37.8 15.5253 37.8 14.352C37.8 13.1787 38.024 12.16 38.472 11.296C38.92 10.4213 39.56 9.74933 40.392 9.28C41.224 8.81067 42.1947 8.576 43.304 8.576C44.7013 8.576 45.9067 8.96 46.92 9.728C47.08 9.856 47.192 9.984 47.256 10.112C47.32 10.24 47.352 10.4 47.352 10.592C47.352 10.8693 47.272 11.1093 47.112 11.312C46.9627 11.504 46.776 11.6 46.552 11.6C46.4027 11.6 46.2693 11.584 46.152 11.552C46.0453 11.5093 45.9227 11.44 45.784 11.344C45.3573 11.0667 44.9627 10.8693 44.6 10.752C44.2373 10.624 43.848 10.56 43.432 10.56C42.408 10.56 41.6347 10.88 41.112 11.52C40.6 12.1493 40.344 13.0933 40.344 14.352C40.344 16.8907 41.3733 18.16 43.432 18.16C43.8267 18.16 44.2 18.1013 44.552 17.984C44.904 17.856 45.3147 17.6533 45.784 17.376C45.944 17.28 46.0773 17.216 46.184 17.184C46.2907 17.1413 46.4133 17.12 46.552 17.12C46.776 17.12 46.9627 17.2213 47.112 17.424C47.272 17.616 47.352 17.8507 47.352 18.128C47.352 18.32 47.3147 18.4853 47.24 18.624C47.176 18.752 47.0693 18.8747 46.92 18.992C45.9067 19.76 44.7013 20.144 43.304 20.144ZM49.1078 22.144C48.7664 22.144 48.4944 22.0427 48.2918 21.84C48.0998 21.6373 48.0038 21.36 48.0038 21.008V19.408C47.9931 19.0347 48.0891 18.7413 48.2918 18.528C48.4944 18.304 48.7718 18.192 49.1238 18.192H49.2198C49.4864 17.648 49.6678 17.0613 49.7638 16.432C49.8598 15.792 49.9078 15.072 49.9078 14.272V13.36C49.8971 12.9867 49.9931 12.6933 50.1957 12.48C50.3984 12.256 50.6758 12.144 51.0278 12.144H54.9478C55.3211 12.1333 55.6144 12.2347 55.8278 12.448C56.0518 12.6507 56.1638 12.9227 56.1638 13.264V18.192H56.2438C56.6171 18.192 56.9104 18.2933 57.1238 18.496C57.3478 18.6987 57.4598 18.9707 57.4598 19.312V21.008C57.4598 21.36 57.3584 21.6373 57.1558 21.84C56.9638 22.0427 56.6971 22.144 56.3558 22.144C56.0144 22.144 55.7424 22.0427 55.5398 21.84C55.3478 21.6373 55.2518 21.36 55.2518 21.008V20H50.2118V21.008C50.2118 21.36 50.1104 21.6373 49.9078 21.84C49.7158 22.0427 49.4491 22.144 49.1078 22.144ZM53.7638 13.952H51.9878V14.272C51.9878 15.1467 51.9184 15.936 51.7798 16.64C51.6411 17.3333 51.4384 17.856 51.1718 18.208H53.7638V13.952ZM64.7789 17.664C64.9922 17.664 65.1629 17.7493 65.2909 17.92C65.4295 18.0907 65.4989 18.3093 65.4989 18.576C65.4989 18.7573 65.4455 18.928 65.3389 19.088C65.2322 19.2373 65.0829 19.3653 64.8909 19.472C64.5282 19.664 64.1069 19.824 63.6269 19.952C63.1469 20.0693 62.7042 20.128 62.2989 20.128C61.4455 20.128 60.6989 19.9627 60.0589 19.632C59.4295 19.3013 58.9442 18.832 58.6029 18.224C58.2615 17.6053 58.0909 16.88 58.0909 16.048C58.0909 15.248 58.2562 14.5387 58.5869 13.92C58.9175 13.3013 59.3762 12.8213 59.9629 12.48C60.5495 12.128 61.2162 11.952 61.9629 11.952C62.6775 11.952 63.3015 12.112 63.8349 12.432C64.3789 12.7413 64.8002 13.1893 65.0989 13.776C65.3975 14.352 65.5469 15.0293 65.5469 15.808C65.5469 16.0427 65.4882 16.224 65.3709 16.352C65.2642 16.4693 65.1095 16.528 64.9069 16.528H60.4269C60.5015 17.1573 60.6935 17.616 61.0029 17.904C61.3122 18.1813 61.7549 18.32 62.3309 18.32C62.6402 18.32 62.9175 18.2827 63.1629 18.208C63.4082 18.1333 63.6802 18.032 63.9789 17.904C64.1282 17.84 64.2722 17.7867 64.4109 17.744C64.5495 17.6907 64.6722 17.664 64.7789 17.664ZM62.0269 13.616C61.5682 13.616 61.2002 13.7653 60.9229 14.064C60.6455 14.352 60.4802 14.7733 60.4269 15.328H63.5149C63.4829 14.7627 63.3389 14.336 63.0829 14.048C62.8375 13.76 62.4855 13.616 62.0269 13.616ZM70.1261 14.672C70.1261 16.2827 69.9075 17.504 69.4701 18.336C69.0328 19.168 68.4461 19.744 67.7101 20.064C67.5181 20.128 67.3528 20.16 67.2141 20.16C66.9261 20.16 66.6915 20.0747 66.5101 19.904C66.3395 19.7227 66.2541 19.504 66.2541 19.248C66.2541 19.0453 66.3075 18.8587 66.4141 18.688C66.5208 18.5067 66.6755 18.3573 66.8781 18.24C67.2728 18.016 67.5448 17.6427 67.6941 17.12C67.8435 16.5973 67.9181 15.8027 67.9181 14.736V13.36C67.9075 12.9867 68.0035 12.6933 68.2061 12.48C68.4088 12.256 68.6861 12.144 69.0381 12.144H73.2461C73.6195 12.1333 73.9128 12.2347 74.1261 12.448C74.3501 12.6507 74.4621 12.9227 74.4621 13.264V18.96C74.4621 19.312 74.3501 19.5893 74.1261 19.792C73.9128 19.9947 73.6195 20.096 73.2461 20.096C72.8728 20.096 72.5795 19.9947 72.3661 19.792C72.1528 19.5893 72.0461 19.312 72.0461 18.96V13.952H70.1261V14.672ZM79.8078 11.952C80.9598 11.952 81.8131 12.2347 82.3678 12.8C82.9224 13.3547 83.1998 14.208 83.1998 15.36V18.976C83.1998 19.328 83.0984 19.6053 82.8958 19.808C82.6931 20 82.4104 20.096 82.0478 20.096C81.7064 20.096 81.4291 19.9947 81.2158 19.792C81.0131 19.5787 80.9118 19.3067 80.9118 18.976V18.864C80.7518 19.2587 80.4851 19.568 80.1118 19.792C79.7384 20.016 79.3011 20.128 78.7998 20.128C78.2664 20.128 77.7811 20.0213 77.3438 19.808C76.9171 19.5947 76.5758 19.296 76.3198 18.912C76.0744 18.528 75.9518 18.1013 75.9518 17.632C75.9518 17.056 76.0958 16.6027 76.3838 16.272C76.6824 15.9413 77.1571 15.7013 77.8078 15.552C78.4584 15.4027 79.3491 15.328 80.4798 15.328H80.8958V15.04C80.8958 14.592 80.7944 14.2667 80.5918 14.064C80.3998 13.8613 80.0744 13.76 79.6158 13.76C79.1571 13.76 78.4958 13.92 77.6318 14.24C77.3864 14.3573 77.1784 14.416 77.0078 14.416C76.7731 14.416 76.5864 14.336 76.4478 14.176C76.3091 14.0053 76.2398 13.7867 76.2398 13.52C76.2398 13.3067 76.2878 13.1307 76.3838 12.992C76.4798 12.8533 76.6344 12.7253 76.8478 12.608C77.2211 12.4053 77.6744 12.2453 78.2078 12.128C78.7518 12.0107 79.2851 11.952 79.8078 11.952ZM79.3278 18.464C79.7971 18.464 80.1758 18.3093 80.4638 18C80.7518 17.68 80.8958 17.2693 80.8958 16.768V16.496H80.6238C79.7598 16.496 79.1518 16.5653 78.7998 16.704C78.4584 16.8427 78.2878 17.0933 78.2878 17.456C78.2878 17.7547 78.3838 18 78.5758 18.192C78.7784 18.3733 79.0291 18.464 79.3278 18.464ZM91.3101 17.664C91.5235 17.664 91.6941 17.7493 91.8221 17.92C91.9608 18.0907 92.0301 18.3093 92.0301 18.576C92.0301 18.7573 91.9768 18.928 91.8701 19.088C91.7635 19.2373 91.6141 19.3653 91.4221 19.472C91.0595 19.664 90.6381 19.824 90.1581 19.952C89.6781 20.0693 89.2355 20.128 88.8301 20.128C87.9768 20.128 87.2301 19.9627 86.5901 19.632C85.9608 19.3013 85.4755 18.832 85.1341 18.224C84.7928 17.6053 84.6221 16.88 84.6221 16.048C84.6221 15.248 84.7875 14.5387 85.1181 13.92C85.4488 13.3013 85.9075 12.8213 86.4941 12.48C87.0808 12.128 87.7475 11.952 88.4941 11.952C89.2088 11.952 89.8328 12.112 90.3661 12.432C90.9101 12.7413 91.3315 13.1893 91.6301 13.776C91.9288 14.352 92.0781 15.0293 92.0781 15.808C92.0781 16.0427 92.0195 16.224 91.9021 16.352C91.7955 16.4693 91.6408 16.528 91.4381 16.528H86.9581C87.0328 17.1573 87.2248 17.616 87.5341 17.904C87.8435 18.1813 88.2861 18.32 88.8621 18.32C89.1715 18.32 89.4488 18.2827 89.6941 18.208C89.9395 18.1333 90.2115 18.032 90.5101 17.904C90.6595 17.84 90.8035 17.7867 90.9421 17.744C91.0808 17.6907 91.2035 17.664 91.3101 17.664ZM88.5581 13.616C88.0995 13.616 87.7315 13.7653 87.4541 14.064C87.1768 14.352 87.0115 14.7733 86.9581 15.328H90.0461C90.0141 14.7627 89.8701 14.336 89.6141 14.048C89.3688 13.76 89.0168 13.616 88.5581 13.616ZM101.393 11.984C101.767 11.984 102.06 12.0853 102.273 12.288C102.487 12.4907 102.593 12.7627 102.593 13.104V18.992C102.593 19.312 102.487 19.5787 102.273 19.792C102.071 19.9947 101.809 20.096 101.489 20.096C101.18 20.096 100.919 19.9893 100.705 19.776C100.492 19.5627 100.385 19.296 100.385 18.976L100.401 15.664L99.1534 17.936C99.036 18.1493 98.8814 18.32 98.6894 18.448C98.508 18.576 98.3 18.64 98.0654 18.64C97.5747 18.64 97.196 18.4053 96.9294 17.936L95.6974 15.68L95.7134 18.976C95.7134 19.296 95.6067 19.5627 95.3934 19.776C95.18 19.9893 94.9134 20.096 94.5934 20.096C94.2734 20.096 94.0067 19.9947 93.7934 19.792C93.5907 19.5787 93.4894 19.312 93.4894 18.992V13.2C93.4894 12.8267 93.5907 12.5333 93.7934 12.32C93.996 12.096 94.268 11.984 94.6094 11.984C94.972 11.984 95.2707 12.0373 95.5054 12.144C95.74 12.2507 95.9534 12.4907 96.1454 12.864L98.0654 16.464L99.8574 13.04C100.071 12.6453 100.284 12.3733 100.497 12.224C100.711 12.064 101.009 11.984 101.393 11.984ZM41.048 30.672C41.048 32.2827 40.8293 33.504 40.392 34.336C39.9547 35.168 39.368 35.744 38.632 36.064C38.44 36.128 38.2747 36.16 38.136 36.16C37.848 36.16 37.6133 36.0747 37.432 35.904C37.2613 35.7227 37.176 35.504 37.176 35.248C37.176 35.0453 37.2293 34.8587 37.336 34.688C37.4427 34.5067 37.5973 34.3573 37.8 34.24C38.1947 34.016 38.4667 33.6427 38.616 33.12C38.7653 32.5973 38.84 31.8027 38.84 30.736V29.36C38.8293 28.9867 38.9253 28.6933 39.128 28.48C39.3307 28.256 39.608 28.144 39.96 28.144H44.168C44.5413 28.1333 44.8347 28.2347 45.048 28.448C45.272 28.6507 45.384 28.9227 45.384 29.264V34.96C45.384 35.312 45.272 35.5893 45.048 35.792C44.8347 35.9947 44.5413 36.096 44.168 36.096C43.7947 36.096 43.5013 35.9947 43.288 35.792C43.0747 35.5893 42.968 35.312 42.968 34.96V29.952H41.048V30.672ZM52.5536 28.672C52.6496 28.448 52.783 28.2827 52.9536 28.176C53.135 28.0693 53.327 28.016 53.5296 28.016C53.839 28.016 54.111 28.1173 54.3456 28.32C54.5803 28.512 54.6976 28.7467 54.6976 29.024C54.6976 29.1733 54.6603 29.3227 54.5856 29.472L50.2816 38.304C50.175 38.528 50.031 38.6933 49.8496 38.8C49.6683 38.9173 49.4763 38.976 49.2736 38.976C48.975 38.976 48.7136 38.88 48.4896 38.688C48.2656 38.496 48.1536 38.2613 48.1536 37.984C48.1536 37.8133 48.191 37.6533 48.2656 37.504L49.3216 35.312L46.4736 29.472C46.4096 29.3227 46.3776 29.1787 46.3776 29.04C46.3776 28.752 46.5003 28.5067 46.7456 28.304C47.0016 28.1013 47.2896 28 47.6096 28C47.823 28 48.0203 28.0587 48.2016 28.176C48.383 28.2827 48.527 28.448 48.6336 28.672L50.6176 32.992L52.5536 28.672ZM61.2125 36.096C60.8392 36.096 60.5458 35.9947 60.3325 35.792C60.1192 35.5893 60.0125 35.312 60.0125 34.96V33.456C59.8098 33.5307 59.5592 33.5947 59.2605 33.648C58.9618 33.6907 58.6632 33.712 58.3645 33.712C57.4472 33.712 56.7005 33.4933 56.1245 33.056C55.5485 32.608 55.2605 31.9253 55.2605 31.008V29.12C55.2605 28.768 55.3672 28.4907 55.5805 28.288C55.8045 28.0853 56.1032 27.984 56.4765 27.984C56.8498 27.984 57.1432 28.0853 57.3565 28.288C57.5698 28.4907 57.6765 28.768 57.6765 29.12V30.624C57.6765 31.0507 57.7672 31.376 57.9485 31.6C58.1405 31.8133 58.4712 31.92 58.9405 31.92C59.1538 31.92 59.3565 31.8987 59.5485 31.856C59.7405 31.8027 59.8952 31.7387 60.0125 31.664V29.12C60.0125 28.768 60.1192 28.4907 60.3325 28.288C60.5458 28.0853 60.8392 27.984 61.2125 27.984C61.5858 27.984 61.8792 28.0853 62.0925 28.288C62.3165 28.4907 62.4285 28.768 62.4285 29.12V34.96C62.4285 35.312 62.3165 35.5893 62.0925 35.792C61.8792 35.9947 61.5858 36.096 61.2125 36.096ZM65.4085 36C65.0352 36.0107 64.7365 35.9147 64.5125 35.712C64.2992 35.5093 64.1925 35.232 64.1925 34.88V29.12C64.1925 28.768 64.2938 28.4907 64.4965 28.288C64.7098 28.0853 65.0032 27.984 65.3765 27.984C65.7498 27.984 66.0432 28.0853 66.2565 28.288C66.4698 28.4907 66.5765 28.768 66.5765 29.12V34.192H68.6725V29.12C68.6725 28.768 68.7685 28.4907 68.9605 28.288C69.1632 28.0853 69.4458 27.984 69.8085 27.984C70.1818 27.984 70.4752 28.0853 70.6885 28.288C70.9125 28.4907 71.0245 28.768 71.0245 29.12V34.192H73.1045V29.12C73.1045 28.768 73.2058 28.4907 73.4085 28.288C73.6218 28.0853 73.9152 27.984 74.2885 27.984C74.6618 27.984 74.9552 28.0853 75.1685 28.288C75.3818 28.4907 75.4885 28.768 75.4885 29.12V34.784C75.4992 35.1573 75.4032 35.456 75.2005 35.68C74.9978 35.8933 74.7205 36 74.3685 36H65.4085ZM83.607 33.664C83.8203 33.664 83.991 33.7493 84.119 33.92C84.2577 34.0907 84.327 34.3093 84.327 34.576C84.327 34.7573 84.2737 34.928 84.167 35.088C84.0603 35.2373 83.911 35.3653 83.719 35.472C83.3563 35.664 82.935 35.824 82.455 35.952C81.975 36.0693 81.5323 36.128 81.127 36.128C80.2737 36.128 79.527 35.9627 78.887 35.632C78.2577 35.3013 77.7723 34.832 77.431 34.224C77.0897 33.6053 76.919 32.88 76.919 32.048C76.919 31.248 77.0843 30.5387 77.415 29.92C77.7457 29.3013 78.2043 28.8213 78.791 28.48C79.3777 28.128 80.0443 27.952 80.791 27.952C81.5057 27.952 82.1297 28.112 82.663 28.432C83.207 28.7413 83.6283 29.1893 83.927 29.776C84.2257 30.352 84.375 31.0293 84.375 31.808C84.375 32.0427 84.3163 32.224 84.199 32.352C84.0923 32.4693 83.9377 32.528 83.735 32.528H79.255C79.3297 33.1573 79.5217 33.616 79.831 33.904C80.1403 34.1813 80.583 34.32 81.159 34.32C81.4683 34.32 81.7457 34.2827 81.991 34.208C82.2363 34.1333 82.5083 34.032 82.807 33.904C82.9563 33.84 83.1003 33.7867 83.239 33.744C83.3777 33.6907 83.5003 33.664 83.607 33.664ZM80.855 29.616C80.3963 29.616 80.0283 29.7653 79.751 30.064C79.4737 30.352 79.3083 30.7733 79.255 31.328H82.343C82.311 30.7627 82.167 30.336 81.911 30.048C81.6657 29.76 81.3137 29.616 80.855 29.616ZM91.471 36C91.0977 36.0107 90.799 35.9147 90.575 35.712C90.3617 35.5093 90.255 35.232 90.255 34.88V29.36C90.2443 28.9867 90.3403 28.6933 90.543 28.48C90.7563 28.256 91.0337 28.144 91.375 28.144H94.447C95.3643 28.144 96.0843 28.3253 96.607 28.688C97.1297 29.0507 97.391 29.5467 97.391 30.176C97.391 30.5813 97.2683 30.944 97.023 31.264C96.7883 31.5733 96.4577 31.7973 96.031 31.936C97.087 32.2133 97.615 32.8267 97.615 33.776C97.615 34.4373 97.3323 34.976 96.767 35.392C96.2017 35.7973 95.4443 36 94.495 36H91.471ZM93.983 31.248C94.6763 31.248 95.023 30.992 95.023 30.48C95.023 30.2133 94.9377 30.0213 94.767 29.904C94.5963 29.7867 94.3297 29.728 93.967 29.728H92.655V31.248H93.983ZM94.015 34.432C94.8043 34.432 95.199 34.1493 95.199 33.584C95.199 33.2853 95.1083 33.0667 94.927 32.928C94.7563 32.7893 94.4843 32.72 94.111 32.72H92.655V34.432H94.015ZM106.94 27.984C107.314 27.984 107.607 28.0853 107.82 28.288C108.034 28.4907 108.14 28.7627 108.14 29.104V34.992C108.14 35.312 108.034 35.5787 107.82 35.792C107.618 35.9947 107.356 36.096 107.036 36.096C106.727 36.096 106.466 35.9893 106.252 35.776C106.039 35.5627 105.932 35.296 105.932 34.976L105.948 31.664L104.7 33.936C104.583 34.1493 104.428 34.32 104.236 34.448C104.055 34.576 103.847 34.64 103.612 34.64C103.122 34.64 102.743 34.4053 102.476 33.936L101.244 31.68L101.26 34.976C101.26 35.296 101.154 35.5627 100.94 35.776C100.727 35.9893 100.46 36.096 100.14 36.096C99.8203 36.096 99.5536 35.9947 99.3403 35.792C99.1376 35.5787 99.0363 35.312 99.0363 34.992V29.2C99.0363 28.8267 99.1376 28.5333 99.3403 28.32C99.5429 28.096 99.8149 27.984 100.156 27.984C100.519 27.984 100.818 28.0373 101.052 28.144C101.287 28.2507 101.5 28.4907 101.692 28.864L103.612 32.464L105.404 29.04C105.618 28.6453 105.831 28.3733 106.044 28.224C106.258 28.064 106.556 27.984 106.94 27.984ZM116.263 33.664C116.477 33.664 116.647 33.7493 116.775 33.92C116.914 34.0907 116.983 34.3093 116.983 34.576C116.983 34.7573 116.93 34.928 116.823 35.088C116.717 35.2373 116.567 35.3653 116.375 35.472C116.013 35.664 115.591 35.824 115.111 35.952C114.631 36.0693 114.189 36.128 113.783 36.128C112.93 36.128 112.183 35.9627 111.543 35.632C110.914 35.3013 110.429 34.832 110.087 34.224C109.746 33.6053 109.575 32.88 109.575 32.048C109.575 31.248 109.741 30.5387 110.071 29.92C110.402 29.3013 110.861 28.8213 111.447 28.48C112.034 28.128 112.701 27.952 113.447 27.952C114.162 27.952 114.786 28.112 115.319 28.432C115.863 28.7413 116.285 29.1893 116.583 29.776C116.882 30.352 117.031 31.0293 117.031 31.808C117.031 32.0427 116.973 32.224 116.855 32.352C116.749 32.4693 116.594 32.528 116.391 32.528H111.911C111.986 33.1573 112.178 33.616 112.487 33.904C112.797 34.1813 113.239 34.32 113.815 34.32C114.125 34.32 114.402 34.2827 114.647 34.208C114.893 34.1333 115.165 34.032 115.463 33.904C115.613 33.84 115.757 33.7867 115.895 33.744C116.034 33.6907 116.157 33.664 116.263 33.664ZM113.511 29.616C113.053 29.616 112.685 29.7653 112.407 30.064C112.13 30.352 111.965 30.7733 111.911 31.328H114.999C114.967 30.7627 114.823 30.336 114.567 30.048C114.322 29.76 113.97 29.616 113.511 29.616ZM122.123 36.128C121.312 36.128 120.603 35.9627 119.995 35.632C119.387 35.3013 118.917 34.832 118.587 34.224C118.267 33.616 118.107 32.9013 118.107 32.08C118.107 31.2587 118.277 30.5387 118.618 29.92C118.971 29.2907 119.461 28.8053 120.091 28.464C120.72 28.1227 121.445 27.952 122.266 27.952C122.693 27.952 123.12 28.0107 123.547 28.128C123.984 28.2453 124.373 28.4107 124.715 28.624C125.045 28.8267 125.211 29.1253 125.211 29.52C125.211 29.7973 125.147 30.0267 125.019 30.208C124.891 30.3787 124.72 30.464 124.507 30.464C124.368 30.464 124.235 30.4427 124.107 30.4C123.989 30.3467 123.829 30.272 123.627 30.176C123.403 30.0587 123.2 29.968 123.019 29.904C122.848 29.84 122.651 29.808 122.427 29.808C121.829 29.808 121.371 30 121.051 30.384C120.741 30.7573 120.587 31.3067 120.587 32.032C120.587 32.7573 120.741 33.312 121.051 33.696C121.371 34.08 121.829 34.272 122.427 34.272C122.651 34.272 122.848 34.2453 123.019 34.192C123.189 34.128 123.397 34.032 123.643 33.904C123.845 33.808 124.005 33.7387 124.123 33.696C124.24 33.6427 124.368 33.616 124.507 33.616C124.709 33.616 124.875 33.7067 125.003 33.888C125.141 34.0693 125.211 34.2987 125.211 34.576C125.211 34.9707 125.045 35.264 124.715 35.456C124.373 35.6693 123.979 35.8347 123.531 35.952C123.083 36.0693 122.613 36.128 122.123 36.128ZM129.421 36.096C129.047 36.096 128.754 35.9947 128.541 35.792C128.327 35.5893 128.221 35.312 128.221 34.96V29.952H126.653C126.365 29.952 126.135 29.872 125.965 29.712C125.794 29.5413 125.709 29.3227 125.709 29.056C125.709 28.7787 125.794 28.56 125.965 28.4C126.135 28.2293 126.365 28.144 126.653 28.144H132.205C132.493 28.144 132.722 28.2293 132.893 28.4C133.063 28.56 133.149 28.7787 133.149 29.056C133.149 29.3227 133.063 29.5413 132.893 29.712C132.722 29.872 132.493 29.952 132.205 29.952H130.637V34.96C130.637 35.312 130.525 35.5893 130.301 35.792C130.087 35.9947 129.794 36.096 129.421 36.096ZM140.466 33.664C140.68 33.664 140.85 33.7493 140.978 33.92C141.117 34.0907 141.186 34.3093 141.186 34.576C141.186 34.7573 141.133 34.928 141.026 35.088C140.92 35.2373 140.77 35.3653 140.578 35.472C140.216 35.664 139.794 35.824 139.314 35.952C138.834 36.0693 138.392 36.128 137.986 36.128C137.133 36.128 136.386 35.9627 135.746 35.632C135.117 35.3013 134.632 34.832 134.29 34.224C133.949 33.6053 133.778 32.88 133.778 32.048C133.778 31.248 133.944 30.5387 134.274 29.92C134.605 29.3013 135.064 28.8213 135.65 28.48C136.237 28.128 136.904 27.952 137.65 27.952C138.365 27.952 138.989 28.112 139.522 28.432C140.066 28.7413 140.488 29.1893 140.786 29.776C141.085 30.352 141.234 31.0293 141.234 31.808C141.234 32.0427 141.176 32.224 141.058 32.352C140.952 32.4693 140.797 32.528 140.594 32.528H136.114C136.189 33.1573 136.381 33.616 136.69 33.904C137 34.1813 137.442 34.32 138.018 34.32C138.328 34.32 138.605 34.2827 138.85 34.208C139.096 34.1333 139.368 34.032 139.666 33.904C139.816 33.84 139.96 33.7867 140.098 33.744C140.237 33.6907 140.36 33.664 140.466 33.664ZM137.714 29.616C137.256 29.616 136.888 29.7653 136.61 30.064C136.333 30.352 136.168 30.7733 136.114 31.328H139.202C139.17 30.7627 139.026 30.336 138.77 30.048C138.525 29.76 138.173 29.616 137.714 29.616ZM143.846 32.512C143.654 32.512 143.488 32.448 143.35 32.32C143.222 32.192 143.142 32.0053 143.11 31.76L142.406 26.16C142.395 26.1067 142.39 26.032 142.39 25.936C142.39 25.5413 142.528 25.2267 142.806 24.992C143.083 24.7573 143.43 24.64 143.846 24.64C144.304 24.64 144.672 24.7787 144.95 25.056C145.238 25.3333 145.35 25.7067 145.286 26.176L144.566 31.76C144.544 32.0053 144.464 32.192 144.326 32.32C144.198 32.448 144.038 32.512 143.846 32.512ZM143.846 36.096C143.451 36.096 143.126 35.968 142.87 35.712C142.614 35.4453 142.486 35.1147 142.486 34.72C142.486 34.3253 142.614 34 142.87 33.744C143.126 33.4773 143.451 33.344 143.846 33.344C144.24 33.344 144.566 33.4773 144.822 33.744C145.078 34 145.206 34.3253 145.206 34.72C145.206 35.1147 145.078 35.4453 144.822 35.712C144.566 35.968 144.24 36.096 143.846 36.096Z" fill="#DA6E00" fill-opacity="0.9903"/>
<path d="M30.8411 19.9292H18.0468L26.4279 0.158752L0.063591 26.071H12.8578L4.47672 45.8415L30.8411 19.9292Z" fill="url(#paint0_radial_603_4)"/>
<path d="M28.7299 20.7922L6.9822 42.1742L14.1806 25.2082H2.18753L23.9353 3.82611L16.7369 20.7922H28.7299Z" fill="url(#paint1_radial_603_4)"/>
<path d="M0.063591 26.071L26.4279 0.158752L18.0341 19.9292H30.8411L4.47672 45.8415L12.8706 26.071H0.063591ZM6.96943 42.1742L28.7172 20.7921H16.7241L23.9352 3.82606L2.18749 25.2081H14.1805L6.96943 42.1742Z" fill="url(#paint2_radial_603_4)"/>
<path opacity="0.24" d="M30.8411 19.9292H18.0468L26.4279 0.158752L0.063591 26.071H12.8578L4.47672 45.8415L30.8411 19.9292Z" fill="url(#paint3_radial_603_4)"/>
<path d="M30.8411 19.9292H18.0468L26.4279 0.158752L0.063591 26.071H12.8578L4.47672 45.8415L30.8411 19.9292Z" fill="url(#paint4_radial_603_4)"/>
<path d="M30.8411 19.9292H18.0468L26.4279 0.158752L0.063591 26.071H12.8578L4.47672 45.8415L30.8411 19.9292Z" fill="url(#paint5_radial_603_4)"/>
<path opacity="0.24" d="M30.8411 19.9292H18.0468L26.4279 0.158752L0.063591 26.071H12.8578L4.47672 45.8415L30.8411 19.9292Z" fill="url(#paint6_radial_603_4)"/>
<defs>
<radialGradient id="paint0_radial_603_4" cx="0" cy="0" r="1" gradientUnits="userSpaceOnUse" gradientTransform="translate(25.156 8.8139) rotate(180) scale(28.7345 28.6878)">
<stop stop-color="#FFE343"/>
<stop offset="0.5492" stop-color="#FFE241"/>
<stop offset="0.7469" stop-color="#FFDF3A"/>
<stop offset="0.8874" stop-color="#FEDA2F"/>
<stop offset="1" stop-color="#FED31E"/>
</radialGradient>
<radialGradient id="paint1_radial_603_4" cx="0" cy="0" r="1" gradientUnits="userSpaceOnUse" gradientTransform="translate(19.693 8.90037) rotate(180) scale(33.6429 33.5883)">
<stop stop-color="#FFEC5F"/>
<stop offset="1" stop-color="#FFEC5F" stop-opacity="0"/>
</radialGradient>
<radialGradient id="paint2_radial_603_4" cx="0" cy="0" r="1" gradientUnits="userSpaceOnUse" gradientTransform="translate(-21.4858 40.3161) rotate(180) scale(78.0571 77.9302)">
<stop stop-color="#D86D00"/>
<stop offset="0.3292" stop-color="#DC6C0A" stop-opacity="0.6708"/>
<stop offset="0.8792" stop-color="#E86823" stop-opacity="0.1208"/>
<stop offset="1" stop-color="#EB672A" stop-opacity="0"/>
</radialGradient>
<radialGradient id="paint3_radial_603_4" cx="0" cy="0" r="1" gradientUnits="userSpaceOnUse" gradientTransform="translate(16.7303 -0.377113) rotate(108.304) scale(60.1856 25.1116)">
<stop stop-color="white"/>
<stop offset="1" stop-color="white" stop-opacity="0"/>
</radialGradient>
<radialGradient id="paint4_radial_603_4" cx="0" cy="0" r="1" gradientUnits="userSpaceOnUse" gradientTransform="translate(0.874122 1.19483) rotate(180) scale(43.065 42.995)">
<stop stop-color="#FF8000" stop-opacity="0"/>
<stop offset="0.5434" stop-color="#FD7F00" stop-opacity="0.5434"/>
<stop offset="0.7391" stop-color="#F67C00" stop-opacity="0.7391"/>
<stop offset="0.8781" stop-color="#EB7600" stop-opacity="0.8781"/>
<stop offset="0.9903" stop-color="#DA6E00" stop-opacity="0.9903"/>
<stop offset="1" stop-color="#D86D00"/>
</radialGradient>
<radialGradient id="paint5_radial_603_4" cx="0" cy="0" r="1" gradientUnits="userSpaceOnUse" gradientTransform="translate(15.0386 27.4559) rotate(121.719) scale(15.3934 7.3407)">
<stop stop-color="#FFEC5F"/>
<stop offset="1" stop-color="#FFEC5F" stop-opacity="0"/>
</radialGradient>
<radialGradient id="paint6_radial_603_4" cx="0" cy="0" r="1" gradientUnits="userSpaceOnUse" gradientTransform="translate(18.8253 11.9013) rotate(121.719) scale(15.3934 7.3407)">
<stop stop-color="white"/>
<stop offset="1" stop-color="white" stop-opacity="0"/>
</radialGradient>
</defs>
</svg>
